<svg id="user" xmlns="http://www.w3.org/2000/svg" width="24.453" height="29.309" viewBox="0 0 24.453 29.309">
  <path id="Path_791" data-name="Path 791" d="M94.091,14.118a6.83,6.83,0,0,0,4.991-2.068,6.83,6.83,0,0,0,2.068-4.991,6.831,6.831,0,0,0-2.068-4.991,7.058,7.058,0,0,0-9.982,0,6.831,6.831,0,0,0-2.068,4.991A6.83,6.83,0,0,0,89.1,12.051,6.832,6.832,0,0,0,94.091,14.118Zm0,0" transform="translate(-82.05 0)" fill="#181f47"/>
  <path id="Path_792" data-name="Path 792" d="M24.393,255.7a17.436,17.436,0,0,0-.237-1.852,14.591,14.591,0,0,0-.455-1.862,9.2,9.2,0,0,0-.765-1.737,6.554,6.554,0,0,0-1.154-1.5,5.089,5.089,0,0,0-1.658-1.042,5.73,5.73,0,0,0-2.117-.383,2.148,2.148,0,0,0-1.147.487c-.344.224-.746.484-1.2.771a6.85,6.85,0,0,1-1.546.681,6.005,6.005,0,0,1-3.783,0,6.831,6.831,0,0,1-1.545-.681c-.445-.284-.847-.544-1.2-.771a2.145,2.145,0,0,0-1.147-.487,5.723,5.723,0,0,0-2.116.383,5.085,5.085,0,0,0-1.658,1.042,6.554,6.554,0,0,0-1.154,1.5,9.217,9.217,0,0,0-.765,1.737A14.629,14.629,0,0,0,.3,253.844,17.373,17.373,0,0,0,.058,255.7C.02,256.258,0,256.84,0,257.427a4.867,4.867,0,0,0,1.445,3.682,5.2,5.2,0,0,0,3.725,1.359H19.282a5.2,5.2,0,0,0,3.724-1.359,4.865,4.865,0,0,0,1.446-3.682c0-.591-.02-1.173-.059-1.731Zm0,0" transform="translate(0 -233.159)" fill="#181f47"/>
</svg>
